<?xml version="1.0" encoding="UTF-8"?>
<svg id="Capa_1" xmlns="http://www.w3.org/2000/svg" version="1.1" viewBox="0 0 103 103">
  <!-- Generator: Adobe Illustrator 29.0.0, SVG Export Plug-In . SVG Version: 2.1.0 Build 186)  -->
  <defs>
    <style>
      .st0, .st1 {
        fill: #232221;
        stroke-width: 3px;
      }

      .st0, .st1, .st2 {
        stroke: #a5a4a4;
      }

      .st0, .st2 {
        stroke-linecap: round;
        stroke-linejoin: round;
      }

      .st1 {
        stroke-miterlimit: 10;
      }

      .st3 {
        fill: #a5a4a4;
      }

      .st2 {
        fill: none;
        stroke-width: 2px;
      }
    </style>
  </defs>
  <g>
    <circle class="st1" cx="51.5" cy="51.5" r="50"/>
    <g>
      <rect class="st2" x="27.7" y="18.3" width="47.5" height="7.5"/>
      <polygon class="st2" points="72.1 53.4 30.9 53.4 27.7 66.9 75.3 66.9 72.1 53.4"/>
      <line class="st2" x1="30.9" y1="53.4" x2="30.9" y2="25.9"/>
      <line class="st2" x1="72.1" y1="53.4" x2="72.1" y2="25.9"/>
      <rect class="st2" x="34.9" y="31.2" width="33.3" height="17.4"/>
      <path class="st2" d="M27.7,66.9v7.9c0,3.1,2.5,5.5,5.5,5.5h36.4c3.1,0,5.5-2.5,5.5-5.5v-7.9"/>
      <line class="st0" x1="48.3" y1="62.8" x2="52.9" y2="62.8"/>
      <line class="st0" x1="58.1" y1="62.8" x2="62.8" y2="62.8"/>
      <g>
        <circle class="st3" cx="41.6" cy="59.6" r="3.6"/>
        <line class="st2" x1="41.6" y1="59.6" x2="41.6" y2="66.9"/>
      </g>
    </g>
  </g>
  <line class="st2" x1="30.9" y1="97.1" x2="30.9" y2="79.8"/>
  <line class="st2" x1="72.1" y1="97.1" x2="72.1" y2="79.8"/>
  <polyline class="st2" points="65.5 99.5 65.5 87.2 37.5 87.2 37.5 99.5"/>
  <line class="st2" x1="58.1" y1="91.7" x2="58.1" y2="96.1"/>
</svg>