<?xml version="1.0" encoding="UTF-8"?>
<svg id="Capa_1" xmlns="http://www.w3.org/2000/svg" version="1.1" viewBox="0 0 103 103">
  <!-- Generator: Adobe Illustrator 29.0.0, SVG Export Plug-In . SVG Version: 2.1.0 Build 186)  -->
  <defs>
    <style>
      .st0 {
        stroke-miterlimit: 10;
        stroke-width: 3px;
      }

      .st0, .st1 {
        fill: #232221;
      }

      .st0, .st1, .st2 {
        stroke: #a5a4a4;
      }

      .st1, .st2 {
        stroke-linecap: round;
        stroke-linejoin: round;
        stroke-width: 2px;
      }

      .st2 {
        fill: none;
      }
    </style>
  </defs>
  <circle class="st0" cx="51.5" cy="51.5" r="50"/>
  <g>
    <polygon class="st2" points="16.1 65.4 86.9 65.4 83.5 70.6 19.8 70.6 16.1 65.4"/>
    <polyline class="st2" points="16.1 65.4 17.8 58.3 24 36.2 79.5 36.2 79.5 36.2 85.3 58.3 86.9 65.4"/>
    <path class="st2" d="M45.4,34.2"/>
    <polyline class="st2" points="21.7 70.6 22.5 71.4 80.1 71.4 81.3 70.6"/>
    <line class="st2" x1="17.8" y1="58.3" x2="85.5" y2="58.3"/>
    <line class="st2" x1="21.3" y1="45.8" x2="81.3" y2="45.8"/>
    <line class="st2" x1="23.1" y1="39.6" x2="80.4" y2="39.6"/>
    <g>
      <line class="st1" x1="26.3" y1="39.6" x2="24.6" y2="45.8"/>
      <line class="st1" x1="29.9" y1="39.6" x2="28.4" y2="45.8"/>
      <line class="st1" x1="33.4" y1="39.6" x2="32.2" y2="45.8"/>
      <line class="st1" x1="37" y1="39.6" x2="36" y2="45.8"/>
      <line class="st1" x1="40.6" y1="39.6" x2="39.9" y2="45.8"/>
      <line class="st1" x1="44.2" y1="39.6" x2="43.7" y2="45.8"/>
      <line class="st1" x1="47.7" y1="39.6" x2="47.5" y2="45.8"/>
      <line class="st1" x1="51.3" y1="39.6" x2="51.3" y2="45.8"/>
      <line class="st1" x1="54.9" y1="39.6" x2="55.1" y2="45.8"/>
      <line class="st1" x1="58.5" y1="39.6" x2="59" y2="45.8"/>
      <line class="st1" x1="62" y1="39.6" x2="62.8" y2="45.8"/>
      <line class="st1" x1="65.6" y1="39.6" x2="66.6" y2="45.8"/>
      <line class="st1" x1="69.2" y1="39.6" x2="70.4" y2="45.8"/>
      <line class="st1" x1="72.8" y1="39.6" x2="74.2" y2="45.8"/>
      <line class="st1" x1="76.3" y1="39.6" x2="78.1" y2="45.8"/>
    </g>
    <g>
      <rect class="st1" x="45.1" y="31.6" width="13.3" height="2.7"/>
      <polyline class="st1" points="45.1 34.9 45.1 42.5 58.4 42.5 58.4 34.9"/>
    </g>
    <g>
      <line class="st1" x1="29" y1="68" x2="33.1" y2="68"/>
      <line class="st1" x1="42.6" y1="68" x2="46.7" y2="68"/>
      <line class="st1" x1="56.3" y1="68" x2="60.4" y2="68"/>
      <line class="st1" x1="69.9" y1="68" x2="74" y2="68"/>
    </g>
  </g>
  <line class="st1" x1="76.4" y1="61.6" x2="80.4" y2="61.6"/>
</svg>