<?xml version="1.0" encoding="UTF-8"?>
<svg id="Capa_1" xmlns="http://www.w3.org/2000/svg" version="1.1" viewBox="0 0 103 103">
  <!-- Generator: Adobe Illustrator 29.0.0, SVG Export Plug-In . SVG Version: 2.1.0 Build 186)  -->
  <defs>
    <style>
      .st0 {
        fill: #232221;
        stroke-miterlimit: 10;
        stroke-width: 3px;
      }

      .st0, .st1 {
        stroke: #a5a4a4;
      }

      .st2 {
        fill: #a5a4a4;
      }

      .st1 {
        fill: none;
        stroke-linecap: round;
        stroke-linejoin: round;
        stroke-width: 2px;
      }
    </style>
  </defs>
  <circle class="st0" cx="51.5" cy="51.5" r="50"/>
  <g>
    <path class="st1" d="M51.5,73.3c17.9,0,24.8-6.6,27.5-11.2s1.7-4.1,1.7-6.4v-22.6s-14.7-5.1-14.7-5.1c0,0,0,13.8,0,24.6s-14.5,9.9-14.5,9.9c0,0-14.5.8-14.5-9.9v-24.6l-14.7,5.1v22.6c0,2.2.6,4.4,1.7,6.4,2.7,4.7,9.7,11.2,27.5,11.2Z"/>
    <path class="st1" d="M22.3,55.4v6.2c0,2.2.6,4.4,1.7,6.4,2.7,4.7,9.7,11.2,27.5,11.2,17.9,0,24.8-6.6,27.5-11.2s1.7-4.1,1.7-6.4v-6.2"/>
    <path class="st1" d="M37,33.8s13-4.7,28.6,0"/>
    <polyline class="st1" points="24.8 32.3 24.8 30.8 34 23.8 69.1 23.8 78.3 30.7 78.3 32.4"/>
    <path class="st1" d="M37,77.3v-5.8s13.3-9.9,29.4,0"/>
    <line class="st1" x1="66.7" y1="77" x2="66.7" y2="71.8"/>
    <ellipse class="st1" cx="51.5" cy="51.3" rx="10.5" ry="7.6"/>
    <ellipse class="st2" cx="52" cy="67.4" rx="3.4" ry="2.3"/>
  </g>
</svg>