<?xml version="1.0" encoding="UTF-8"?>
<svg id="Capa_1" xmlns="http://www.w3.org/2000/svg" version="1.1" viewBox="0 0 103 103">
  <!-- Generator: Adobe Illustrator 29.0.0, SVG Export Plug-In . SVG Version: 2.1.0 Build 186)  -->
  <defs>
    <style>
      .st0 {
        fill: #232221;
        stroke-miterlimit: 10;
        stroke-width: 3px;
      }

      .st0, .st1 {
        stroke: #a5a4a4;
      }

      .st1 {
        fill: none;
        stroke-linecap: round;
        stroke-linejoin: round;
        stroke-width: 2px;
      }
    </style>
  </defs>
  <circle class="st0" cx="51.5" cy="51.5" r="50"/>
  <g>
    <polyline class="st1" points="79.5 36.2 80.5 36.2 86.9 65.4"/>
    <g>
      <polygon class="st1" points="16.1 65.4 86.9 65.4 83.5 70.6 19.8 70.6 16.1 65.4"/>
      <polyline class="st1" points="45.4 34.1 24.5 34.1 21.8 46.2 82 46.2 79 34.1 58.7 34.1"/>
      <polyline class="st1" points="24 36.2 23 36.2 16.1 65.4"/>
      <rect class="st1" x="45.4" y="32.4" width="13.3" height="2.7"/>
      <polyline class="st1" points="45.4 35.1 45.4 42.7 58.7 42.7 58.7 35.1"/>
      <g>
        <line class="st1" x1="31.7" y1="39.5" x2="31.7" y2="41.6"/>
        <line class="st1" x1="36.9" y1="39.5" x2="36.9" y2="41.6"/>
        <line class="st1" x1="42.1" y1="39.5" x2="42.1" y2="41.6"/>
      </g>
      <g>
        <line class="st1" x1="62.6" y1="39.5" x2="62.6" y2="41.6"/>
        <line class="st1" x1="67.8" y1="39.5" x2="67.8" y2="41.6"/>
        <line class="st1" x1="73" y1="39.5" x2="73" y2="41.6"/>
      </g>
      <g>
        <line class="st1" x1="23.1" y1="49.1" x2="79.9" y2="49.1"/>
        <line class="st1" x1="22.4" y1="52.2" x2="80.6" y2="52.2"/>
        <line class="st1" x1="21.6" y1="55.4" x2="81.4" y2="55.4"/>
        <line class="st1" x1="20.9" y1="58.5" x2="82.1" y2="58.5"/>
        <line class="st1" x1="20.2" y1="61.7" x2="82.8" y2="61.7"/>
      </g>
      <path class="st1" d="M45.4,34.1"/>
    </g>
  </g>
</svg>