<?xml version="1.0" encoding="UTF-8"?>
<svg id="Layer_1" xmlns="http://www.w3.org/2000/svg" xmlns:xlink="http://www.w3.org/1999/xlink" version="1.1" viewBox="0 0 103 103">
  <!-- Generator: Adobe Illustrator 30.0.0, SVG Export Plug-In . SVG Version: 2.1.1 Build 123)  -->
  <defs>
    <style>
      .st0 {
        fill: none;
      }

      .st1, .st2 {
        fill: #232221;
      }

      .st2 {
        stroke: #a5a5a5;
        stroke-miterlimit: 10;
        stroke-width: 3px;
      }

      .st3 {
        fill: #a5a5a5;
        fill-rule: evenodd;
      }

      .st4 {
        clip-path: url(#clippath);
      }
    </style>
    <clipPath id="clippath">
      <circle class="st0" cx="51.5" cy="51.5" r="50"/>
    </clipPath>
  </defs>
  <circle class="st2" cx="51.5" cy="51.5" r="50"/>
  <g class="st4">
    <g>
      <line class="st2" x1="70.33" y1="-21.2" x2="-3.98" y2="122.05"/>
      <line class="st2" x1="109.88" y1="-21.2" x2="35.56" y2="122.05"/>
    </g>
  </g>
  <g>
    <rect class="st1" x="11.39" y="39.2" width="80.91" height="25.97"/>
    <path class="st3" d="M17.74,61.32l.29-3.87h1.6l.32,3.87h3.95l-2.48-19.55h-5.1l-2.51,19.55h3.93ZM19.4,54.23h-1.14l.58-7.6.56,7.6ZM30.35,41.77h-5.5v19.55h3.76v-11.14l1.56,11.14h2.44l1.5-11.08v11.08h3.76v-19.55h-5.51l-1.02,8.64-.99-8.64ZM38.56,44.15c0,1.35-.02,2.69,0,4.04,0,.22.02.44.03.6.03.33.05.44.11.65.06.21.15.48.31.72.07.11.15.22.27.35s.28.28.44.43c.34.3.72.53,1.09.72.82.45,1.64.9,2.46,1.36.11.07.23.13.34.24.28.27.28.59.28.89l.02.42v2.65c0,.19,0,.38-.1.59-.14.26-.45.37-.71.25-.06-.03-.12-.07-.17-.11-.21-.2-.18-.49-.22-.73v-3.98h-4.16v4.46c0,.55.01,1.07.13,1.6.06.28.17.56.32.82.15.26.36.49.6.66.24.18.52.31.74.38.22.08.38.1.54.12.16.02.32.04.48.04h4.23c.19,0,.38,0,.62-.06.27-.07.52-.19.76-.33.24-.15.45-.35.59-.55.14-.21.22-.43.28-.63.07-.2.12-.38.16-.61.04-.24.07-.53.08-.83.01-.3,0-.59,0-.89v-3.13c0-.06,0-.12,0-.25,0-.13,0-.34-.01-.57,0-.24-.02-.5-.04-.67-.01-.19-.05-.37-.1-.55-.03-.1-.06-.19-.11-.28-.08-.17-.17-.33-.27-.49-.12-.17-.25-.33-.4-.47-.15-.14-.32-.26-.51-.39-.4-.27-.81-.52-1.23-.76l-1.77-.96c-.11-.06-.21-.12-.31-.19-.09-.06-.17-.12-.26-.18-.11-.08-.11-.09-.15-.14-.02-.02-.03-.04-.06-.09-.07-.11-.15-.29-.16-.45-.01-.08,0-.17,0-.26,0-.62,0-1.25,0-1.85,0-.14,0-.3.05-.44.02-.07.05-.14.09-.2.2-.27.44-.31.71-.2.12.07.22.18.28.31.03.06.04.13.05.23.02.2.02.47.02.7v2.33h4.18c0-1.2.01-2.4-.01-3.6-.01-.28-.03-.56-.05-.74,0-.12-.03-.24-.05-.36-.02-.09-.04-.17-.06-.26-.03-.11-.07-.22-.12-.32-.08-.19-.18-.37-.3-.54-.13-.18-.3-.35-.49-.48s-.4-.23-.58-.3c-.35-.12-.62-.14-.93-.18-.15-.02-.3-.03-.45-.03l-3.62.03c-.43.01-.85.07-1.26.19-.13.04-.26.09-.37.15-.24.13-.43.27-.64.52-.12.14-.22.3-.3.46-.18.35-.29.74-.3,1.12h0ZM48.78,41.77v3.15h2.08v16.4h4.18v-16.4h2.07v-3.15h-8.33ZM62.69,41.77h-4.45v19.55h4.17v-7.79c.27.01.55-.02.82.06.06.02.11.05.16.09.19.17.18.38.21.58.04.4,0,.8.02,1.21v5.86h4.17v-6.11c-.01-.6-.05-1.2-.18-1.8-.04-.14-.09-.28-.15-.41-.09-.21-.22-.41-.37-.59-.15-.18-.33-.33-.53-.45-.2-.12-.42-.22-.64-.27.11-.03.22-.06.32-.1.66-.25,1.15-.81,1.31-1.49.04-.16.08-.32.11-.48.1-.66.13-1.32.12-1.98v-2.05c.02-.6-.03-1.2-.15-1.78-.03-.15-.07-.29-.12-.43-.05-.13-.11-.25-.18-.37-.07-.12-.15-.23-.24-.33-.42-.45-1-.73-1.62-.79-.93-.11-1.86-.08-2.79-.1h0ZM62.41,44.95c.2,0,.39,0,.59,0,.09,0,.19.03.28.07.27.18.28.41.31.62.02.25.02.49.02.74,0,.86.01,1.71,0,2.57,0,.15-.02.31-.04.46-.01.14-.08.28-.2.37-.13.11-.29.12-.45.14-.17.02-.35.02-.52,0v-4.99h0,0ZM72.58,61.32l.29-3.87h1.6l.32,3.87h3.95l-2.48-19.55h-5.1l-2.51,19.55h3.93ZM74.24,54.23h-1.14l.58-7.6.56,7.6ZM88.69,42.97c-.14-.23-.33-.43-.54-.6s-.46-.29-.64-.36c-.14-.06-.28-.09-.42-.12-.12-.02-.24-.04-.36-.05s-.24-.02-.53-.04c-.29-.01-.74-.04-1.19-.04h-5.41s0,19.55,0,19.55h6.63c.17-.01.33-.06.49-.09.34-.06.64-.13.97-.27.17-.08.35-.18.52-.3s.31-.27.45-.5c.14-.23.27-.54.37-.92.1-.38.17-.83.17-1.27l-.03-13.35c0-.3-.08-.61-.16-.88s-.18-.53-.32-.76h0ZM84.03,44.96c.09,0,.18,0,.26,0,.09.01.17.03.24.05.07.02.12.04.17.08.05.03.09.07.12.12.14.22.13.53.14.8v11.26c0,.08,0,.17-.01.25-.01.08-.03.15-.06.23-.02.06-.06.12-.1.18-.04.05-.1.09-.15.12s-.12.07-.18.07h-.68v-13.16h.26Z"/>
  </g>
</svg>