<?xml version="1.0" encoding="UTF-8"?>
<svg id="Capa_1" xmlns="http://www.w3.org/2000/svg" version="1.1" viewBox="0 0 103 103">
  <!-- Generator: Adobe Illustrator 29.0.0, SVG Export Plug-In . SVG Version: 2.1.0 Build 186)  -->
  <defs>
    <style>
      .st0, .st1 {
        stroke-miterlimit: 10;
      }

      .st0, .st1, .st2, .st3 {
        stroke: #a5a4a4;
      }

      .st0, .st2, .st3 {
        stroke-width: 2px;
      }

      .st0, .st3 {
        fill: none;
      }

      .st1 {
        stroke-width: 3px;
      }

      .st1, .st2 {
        fill: #232221;
      }

      .st4 {
        fill: #a5a4a4;
      }

      .st2, .st3 {
        stroke-linecap: round;
        stroke-linejoin: round;
      }
    </style>
  </defs>
  <circle class="st1" cx="51.5" cy="51.5" r="50"/>
  <g>
    <path class="st3" d="M76.6,69.8H26.4c-1.4,0-2.5-1.1-2.5-2.5l2-33.9c0-1.4,1.1-2.5,2.5-2.5h46.2c1.4,0,2.5,1.1,2.5,2.5l2,33.9c0,1.4-1.1,2.5-2.5,2.5Z"/>
    <g>
      <g>
        <rect class="st4" x="27.8" y="61.4" width="5.7" height="2.6"/>
        <rect class="st4" x="35.6" y="61.4" width="5.7" height="2.6"/>
      </g>
      <g>
        <rect class="st4" x="61.7" y="61.4" width="5.7" height="2.6"/>
        <rect class="st4" x="69.5" y="61.4" width="5.7" height="2.6"/>
      </g>
    </g>
    <path class="st0" d="M23.9,67.2v5.5c0,1,.8,1.8,1.8,1.8h51.6c1,0,1.8-.8,1.8-1.8v-5.7"/>
    <line class="st0" x1="24.7" y1="53.1" x2="78.3" y2="53.1"/>
    <line class="st0" x1="25.3" y1="43.3" x2="77.7" y2="43.3"/>
    <line class="st2" x1="24.9" y1="49.2" x2="78.1" y2="49.2"/>
    <g>
      <line class="st2" x1="30.6" y1="30.8" x2="30.6" y2="33.1"/>
      <line class="st2" x1="34.4" y1="30.8" x2="34.4" y2="33.1"/>
      <line class="st2" x1="38.2" y1="30.8" x2="38.2" y2="33.1"/>
      <line class="st2" x1="42" y1="30.8" x2="42" y2="33.1"/>
      <line class="st2" x1="45.8" y1="30.8" x2="45.8" y2="33.1"/>
      <line class="st2" x1="49.6" y1="30.8" x2="49.6" y2="33.1"/>
      <line class="st2" x1="53.4" y1="30.8" x2="53.4" y2="33.1"/>
      <line class="st2" x1="57.2" y1="30.8" x2="57.2" y2="33.1"/>
      <line class="st2" x1="61" y1="30.8" x2="61" y2="33.1"/>
      <line class="st2" x1="64.8" y1="30.8" x2="64.8" y2="33.1"/>
      <line class="st2" x1="68.6" y1="30.8" x2="68.6" y2="33.1"/>
      <line class="st2" x1="72.4" y1="30.8" x2="72.4" y2="33.1"/>
    </g>
    <g>
      <rect class="st2" x="44.3" y="28.5" width="13.3" height="2.7"/>
      <polyline class="st2" points="44.3 31.8 44.3 39.4 57.6 39.4 57.6 31.8"/>
    </g>
    <polyline class="st3" points="43.9 37 41.7 37 41.7 43.3"/>
    <polyline class="st3" points="58 37 60.2 37 60.2 43.3"/>
  </g>
</svg>