<?xml version="1.0" encoding="UTF-8"?>
<svg id="Layer_1" xmlns="http://www.w3.org/2000/svg" version="1.1" viewBox="0 0 103 103">
  <!-- Generator: Adobe Illustrator 29.0.0, SVG Export Plug-In . SVG Version: 2.1.0 Build 186)  -->
  <defs>
    <style>
      .st0 {
        stroke-width: 3px;
      }

      .st0, .st1, .st2 {
        fill: none;
        stroke: #a5a5a5;
      }

      .st0, .st2 {
        stroke-miterlimit: 10;
      }

      .st3 {
        fill: #a5a5a5;
      }

      .st1 {
        stroke-linecap: round;
        stroke-linejoin: round;
      }

      .st1, .st2 {
        stroke-width: 2px;
      }
    </style>
  </defs>
  <circle class="st0" cx="51.5" cy="51.5" r="50"/>
  <line class="st1" x1="35.3" y1="19.8" x2="42.5" y2="19.8"/>
  <line class="st1" x1="35.3" y1="23.9" x2="42.5" y2="23.9"/>
  <line class="st1" x1="35.3" y1="28.1" x2="42.5" y2="28.1"/>
  <line class="st1" x1="35.3" y1="32.3" x2="42.5" y2="32.3"/>
  <line class="st1" x1="35.3" y1="36.5" x2="42.5" y2="36.5"/>
  <line class="st1" x1="35.3" y1="40.7" x2="42.5" y2="40.7"/>
  <path class="st2" d="M24.5,76.4l2.6-6.9c.2-.7.9-1.1,1.6-1.1h12"/>
  <path class="st2" d="M55.5,68.4h-14.9"/>
  <path class="st2" d="M56.7,76.4"/>
  <circle class="st2" cx="29.6" cy="58.8" r="3.9"/>
  <circle class="st2" cx="51.6" cy="58.8" r="3.9"/>
  <line class="st2" x1="29.6" y1="54.9" x2="51.6" y2="54.9"/>
  <line class="st2" x1="29.6" y1="62.7" x2="51.6" y2="62.7"/>
  <circle class="st2" cx="70.8" cy="68.4" r="15.3"/>
  <circle class="st2" cx="70.8" cy="68.4" r="3.9"/>
  <circle class="st3" cx="70.8" cy="68.4" r="1"/>
  <path class="st1" d="M71,59c0,0-.1,0-.2,0-5.2,0-9.4,4.2-9.4,9.4s0,.4,0,.5"/>
  <path class="st1" d="M70.5,77.8c0,0,.2,0,.3,0,5.1,0,9.2-4.1,9.4-9.1"/>
  <path class="st2" d="M63.7,47.4v7.5c2.1-1.1,4.5-1.8,7.1-1.8s2,.1,2.9.3c0-.1,0-.3,0-.5V17.5c0-.8-.6-1.4-1.4-1.4H30.8c-.8,0-1.4.6-1.4,1.4v26.8h31.2c1.7,0,3.1,1.4,3.1,3.1Z"/>
  <path class="st2" d="M55.5,68.4c0-5.9,3.3-11,8.2-13.6v-7.5c0-1.7-1.4-3.1-3.1-3.1H20.6c-1.7,0-3.1,1.4-3.1,3.1v25.9c0,1.7,1.4,3.1,3.1,3.1h37.2c-1.4-2.3-2.3-5.1-2.3-8Z"/>
  <path class="st2" d="M48.3,16v28.2h12.2c1.7,0,3.1,1.4,3.1,3.1v1.6h2.6c1.3,0,2.3-1,2.3-2.3v-30.6h-20.3Z"/>
</svg>