<?xml version="1.0" encoding="UTF-8"?>
<svg id="Capa_1" xmlns="http://www.w3.org/2000/svg" version="1.1" viewBox="0 0 103 103">
  <!-- Generator: Adobe Illustrator 29.0.0, SVG Export Plug-In . SVG Version: 2.1.0 Build 186)  -->
  <defs>
    <style>
      .st0, .st1 {
        stroke-miterlimit: 10;
      }

      .st0, .st1, .st2 {
        fill: #232221;
      }

      .st0, .st1, .st2, .st3 {
        stroke: #a5a4a4;
      }

      .st0, .st2, .st3 {
        stroke-width: 2px;
      }

      .st1 {
        stroke-width: 3px;
      }

      .st4 {
        fill: #a5a4a4;
      }

      .st2, .st3 {
        stroke-linecap: round;
        stroke-linejoin: round;
      }

      .st3 {
        fill: none;
      }
    </style>
  </defs>
  <circle class="st1" cx="51.5" cy="51.5" r="50"/>
  <g>
    <rect class="st3" x="24.8" y="27.4" width="53.4" height="48.3" rx="4.1" ry="4.1"/>
    <path class="st3" d="M78.2,65.1s-6.3.2-12.5-1-9-1.5-14.2-1.5h0c-5.2,0-8,.3-14.2,1.5s-12.5,1-12.5,1"/>
    <polyline class="st3" points="32.5 75.6 32.5 68.1 70.6 68.1 70.6 75.6"/>
    <path class="st3" d="M37.5,70.8"/>
    <g>
      <polyline class="st4" points="39.7 73.2 38.5 73.2 38 72.5 38 70.8 39.7 70.8 40.5 70.8 42.3 70.8 42.3 72.5 41.7 73.2 39.7 73.2"/>
      <polyline class="st4" points="47.4 73.2 46.1 73.2 45.6 72.5 45.6 70.8 47.4 70.8 48.1 70.8 49.9 70.8 49.9 72.5 49.3 73.2 47.3 73.2"/>
      <polyline class="st4" points="55 73.2 53.8 73.2 53.2 72.5 53.2 70.8 55 70.8 55.8 70.8 57.5 70.8 57.5 72.5 57 73.2 55 73.2"/>
      <polyline class="st4" points="62.6 73.2 61.4 73.2 60.9 72.5 60.9 70.8 62.6 70.8 63.4 70.8 65.2 70.8 65.2 72.5 64.6 73.2 62.6 73.2"/>
    </g>
    <circle class="st3" cx="51.5" cy="44.3" r="14.2"/>
    <path class="st0" d="M49.5,55h4.1c.6,0,1,.7.6,1.2l-2,3.2c-.3.5-1,.5-1.3,0l-2.1-3.2c-.3-.5,0-1.2.6-1.2Z"/>
    <line class="st0" x1="40.1" y1="35.9" x2="33" y2="27.4"/>
    <line class="st0" x1="62.8" y1="35.9" x2="71.1" y2="27.4"/>
    <circle class="st0" cx="32.5" cy="57.7" r="3.5"/>
    <circle class="st0" cx="70.7" cy="57.7" r="3.5"/>
    <circle class="st0" cx="51.5" cy="35.4" r="2.2"/>
    <line class="st2" x1="48.8" y1="65.1" x2="54.4" y2="65.1"/>
  </g>
</svg>