<?xml version="1.0" encoding="UTF-8"?>
<svg id="Layer_1" xmlns="http://www.w3.org/2000/svg" version="1.1" viewBox="0 0 103 103">
  <!-- Generator: Adobe Illustrator 30.0.0, SVG Export Plug-In . SVG Version: 2.1.1 Build 123)  -->
  <defs>
    <style>
      .st0 {
        fill: none;
      }

      .st1 {
        stroke-width: 2px;
      }

      .st1, .st2 {
        fill: #232221;
        stroke: #a5a5a5;
        stroke-miterlimit: 10;
      }

      .st2 {
        stroke-width: 3px;
      }
    </style>
  </defs>
  <circle class="st2" cx="51.5" cy="51.5" r="50"/>
  <g>
    <path class="st0" d="M58.74,59.01l-1.18,1.18,8.47,8.48c.21.21.44.35.68.45.24.1.51.15.78.15.27,0,.53-.05.78-.15.25-.1.47-.25.68-.45l7.62-7.62c.21-.21.35-.44.45-.68.1-.25.15-.51.15-.78s-.05-.53-.15-.77c-.1-.25-.25-.47-.45-.68l-17.53-17.53c-.21-.21-.43-.36-.68-.46-.25-.1-.51-.15-.77-.15s-.53.05-.78.15c-.25.1-.47.25-.68.46l-2.2,2.2,4.81,4.81c.78.78,1.38,1.69,1.77,2.67.39.97.59,2,.59,3.03s-.2,2.06-.59,3.03c-.39.97-.99,1.89-1.77,2.67Z"/>
    <path class="st0" d="M36.97,34.33c-.21-.21-.44-.35-.68-.45-.25-.1-.51-.15-.78-.15s-.53.05-.78.15c-.25.1-.47.24-.68.45l-7.09,7.09-.53.53c-.21.21-.35.43-.45.68-.1.25-.15.51-.15.78s.05.53.15.78c.1.24.25.47.45.68l17.53,17.53c.21.21.43.35.68.45.25.1.51.15.78.15s.53-.05.78-.15c.25-.1.47-.25.68-.45l2.2-2.2-4.81-4.81c-.78-.78-1.38-1.69-1.77-2.67-.39-.97-.59-2-.59-3.03s.19-2.06.59-3.03c.39-.97.99-1.89,1.77-2.67h0l1.18-1.18-8.48-8.48Z"/>
    <path class="st0" d="M49.68,47.05l-.65.65-.53.53c-.21.21-.35.43-.45.68-.1.24-.15.51-.15.78s.05.53.15.77c.1.25.25.47.45.68l4.81,4.81,1.18-1.18c.21-.21.35-.43.45-.68.1-.25.15-.51.15-.78s-.05-.53-.15-.78c-.1-.25-.25-.47-.45-.68l-4.81-4.81Z"/>
    <path class="st1" d="M26.43,41.95l.53-.53,7.09-7.09c.21-.21.43-.35.68-.45.25-.1.51-.15.78-.15s.53.05.78.15c.24.1.47.24.68.45l8.48,8.48,4.24-4.24-8.48-8.47c-.78-.78-1.69-1.38-2.66-1.77-.97-.39-2-.59-3.03-.59s-2.06.2-3.03.59c-.97.39-1.89.99-2.67,1.77l-7.62,7.62c-.78.78-1.38,1.7-1.77,2.67-.39.97-.59,2-.59,3.03s.2,2.06.59,3.03c.4.97.99,1.88,1.77,2.67l17.53,17.53c.78.78,1.69,1.37,2.67,1.77.97.39,2,.59,3.03.59s2.06-.19,3.03-.59c.97-.39,1.89-.99,2.67-1.77l2.2-2.2,4.24-4.24,1.18-1.18c.78-.78,1.38-1.7,1.77-2.67.39-.97.59-2,.59-3.03s-.2-2.06-.59-3.03c-.39-.97-.99-1.89-1.77-2.67l-4.81-4.81-4.24,4.24,4.81,4.81c.21.21.35.43.45.68.1.24.15.51.15.78s-.05.53-.15.78c-.1.25-.25.47-.45.68l-1.18,1.18-4.24,4.24-2.2,2.2c-.21.21-.44.35-.68.45-.25.1-.51.15-.78.15s-.53-.05-.78-.15c-.25-.1-.47-.25-.68-.45l-17.53-17.53c-.21-.21-.35-.43-.45-.68-.1-.25-.15-.51-.15-.78s.05-.53.15-.78c.1-.25.25-.47.45-.68Z"/>
    <path class="st1" d="M76.57,61.05l-7.62,7.62c-.21.21-.44.35-.68.45-.24.1-.51.15-.78.15-.27,0-.53-.05-.78-.15-.25-.1-.47-.25-.68-.45l-8.47-8.48-4.24,4.24,8.48,8.48c.78.78,1.7,1.38,2.66,1.77.97.39,2,.59,3.03.59s2.06-.2,3.03-.59c.97-.39,1.89-.99,2.67-1.77l7.62-7.62c.78-.78,1.38-1.7,1.77-2.67.4-.97.59-2,.59-3.03s-.19-2.06-.59-3.03c-.39-.97-.99-1.89-1.77-2.67l-17.53-17.53c-.78-.78-1.69-1.37-2.66-1.77-.97-.39-2-.59-3.03-.59s-2.06.19-3.03.59c-.97.39-1.89.99-2.67,1.77l-2.2,2.2-4.24,4.24-1.18,1.18h0c-.78.78-1.38,1.7-1.77,2.67-.39.97-.59,2-.59,3.03s.19,2.06.59,3.03c.39.97.99,1.89,1.77,2.67l4.81,4.81,4.24-4.24-4.81-4.81c-.21-.21-.35-.44-.45-.68-.1-.24-.15-.51-.15-.77s.05-.53.15-.78c.1-.25.25-.47.45-.68l.53-.53.65-.65,4.24-4.24,2.2-2.2c.21-.21.44-.36.68-.46.24-.1.51-.15.78-.15s.53.05.77.15c.25.1.47.25.68.46l17.53,17.53c.21.21.35.43.45.68.1.25.15.51.15.77s-.05.53-.15.78c-.1.24-.25.47-.45.68Z"/>
  </g>
</svg>