<?xml version="1.0" encoding="UTF-8"?>
<svg id="Capa_1" xmlns="http://www.w3.org/2000/svg" version="1.1" viewBox="0 0 103 103">
  <!-- Generator: Adobe Illustrator 29.0.0, SVG Export Plug-In . SVG Version: 2.1.0 Build 186)  -->
  <defs>
    <style>
      .st0 {
        fill: #232221;
        stroke-miterlimit: 10;
        stroke-width: 3px;
      }

      .st0, .st1 {
        stroke: #a5a4a4;
      }

      .st1 {
        fill: none;
        stroke-linecap: round;
        stroke-linejoin: round;
        stroke-width: 2px;
      }
    </style>
  </defs>
  <circle class="st0" cx="51.5" cy="51.5" r="50"/>
  <g>
    <path class="st1" d="M77.9,52.1l-3.8-27.7c-.2-1.5-1.4-2.6-2.9-2.6h-19s-19,0-19,0c-1.5,0-2.7,1.1-2.9,2.6l-3.8,27.7"/>
    <polyline class="st1" points="69.3 21.9 71.5 47 52.2 47 32.9 47 35.2 21.9"/>
    <ellipse class="st1" cx="52.2" cy="34.7" rx="12.7" ry="7.2"/>
    <path class="st1" d="M26.5,52.1h51.4v24.9c0,1.3-1,2.3-2.3,2.3H28.8c-1.3,0-2.3-1-2.3-2.3v-24.9Z"/>
    <g>
      <circle class="st1" cx="36.1" cy="63.6" r="3.2"/>
      <circle class="st1" cx="46.8" cy="63.6" r="3.2"/>
      <circle class="st1" cx="57.6" cy="63.6" r="3.2"/>
      <circle class="st1" cx="68.4" cy="63.6" r="3.2"/>
    </g>
    <g>
      <line class="st1" x1="32.8" y1="72.6" x2="47.8" y2="72.6"/>
      <line class="st1" x1="56.6" y1="72.6" x2="71.6" y2="72.6"/>
    </g>
  </g>
</svg>