<?xml version="1.0" encoding="UTF-8"?>
<svg id="Capa_1" xmlns="http://www.w3.org/2000/svg" version="1.1" viewBox="0 0 103 103">
  <!-- Generator: Adobe Illustrator 29.0.0, SVG Export Plug-In . SVG Version: 2.1.0 Build 186)  -->
  <defs>
    <style>
      .st0 {
        fill: #232221;
        stroke-miterlimit: 10;
        stroke-width: 3px;
      }

      .st0, .st1 {
        stroke: #a5a4a4;
      }

      .st2 {
        fill: #a5a4a4;
      }

      .st1 {
        fill: none;
        stroke-linecap: round;
        stroke-linejoin: round;
        stroke-width: 2px;
      }
    </style>
  </defs>
  <circle class="st0" cx="51.5" cy="51.5" r="50"/>
  <g>
    <path class="st1" d="M51.5,71h9.4c10.6,0,12.8-3.1,16.1-4.5s10-1.3,10.3-5.7c.6-6.5-.8-18.5-1.6-23.5-.2-1.3-1.3-2.3-2.6-2.5-6.7-.9-12-3.3-14.4-4.6s-1.9-.7-2.9-.7h-14.3s-14.3,0-14.3,0c-1,0-2,.2-2.9.7-2.3,1.2-7.7,3.7-14.4,4.6s-2.4,1.2-2.6,2.5c-.8,5-2.2,17-1.6,23.5.3,4.3,7,4.3,10.3,5.7,3.3,1.3,5.5,4.5,16.1,4.5s9.4,0,9.4,0Z"/>
    <path class="st1" d="M51.5,67.4h3.4c15.8,0,15.9-5.7,15.9-5.7l-1.1-24.1c0-1.3-1.1-2.4-2.5-2.5l-15.7-.8-15.7.8c-1.3,0-2.4,1.1-2.5,2.5l-1.1,24.1s0,5.7,15.9,5.7,3.4,0,3.4,0Z"/>
    <rect class="st1" x="36.6" y="38.2" width="29.9" height="20.8"/>
    <g>
      <rect class="st2" x="23.2" y="42.6" width="3.6" height="9.3"/>
      <rect class="st2" x="23.2" y="42.6" width="3.6" height="9.3" transform="translate(-22.2 72.3) rotate(-90)"/>
    </g>
    <circle class="st2" cx="75.9" cy="48.1" r="2.6"/>
    <circle class="st2" cx="28.9" cy="57.2" r="1.2"/>
    <circle class="st2" cx="28.9" cy="61.3" r="1.2"/>
    <circle class="st2" cx="81.6" cy="45.2" r="2.6"/>
  </g>
</svg>