<?xml version="1.0" encoding="UTF-8"?>
<svg id="Capa_1" xmlns="http://www.w3.org/2000/svg" version="1.1" viewBox="0 0 103 103">
  <!-- Generator: Adobe Illustrator 29.0.0, SVG Export Plug-In . SVG Version: 2.1.0 Build 186)  -->
  <defs>
    <style>
      .st0, .st1 {
        fill: #232221;
        stroke-width: 3px;
      }

      .st0, .st1, .st2 {
        stroke: #a5a4a4;
      }

      .st0, .st2 {
        stroke-linecap: round;
        stroke-linejoin: round;
      }

      .st1 {
        stroke-miterlimit: 10;
      }

      .st3 {
        fill: #a5a4a4;
      }

      .st2 {
        fill: none;
        stroke-width: 2px;
      }
    </style>
  </defs>
  <circle class="st1" cx="51.5" cy="51.5" r="50"/>
  <g>
    <path class="st2" d="M50.8,86.4c-19.1,0-19.9-4-19.9-4V19c0-1.3,1.1-2.4,2.4-2.4h18.4-.4s18.4,0,18.4,0c1.3,0,2.4,1.1,2.4,2.4v63.4s-.7,4-19.9,4h-1.5Z"/>
    <path class="st2" d="M48.5,20.3h19.4v28.2s-.4,3-16,3h-.9c-15.6,0-16-3-16-3v-28.2h16"/>
    <rect class="st2" x="40.5" y="23.8" width="22" height="19.9"/>
    <g>
      <rect class="st3" x="37.6" y="58.2" width="3.3" height="9.3"/>
      <rect class="st3" x="37.6" y="58.2" width="3.3" height="9.3" transform="translate(-23.6 102.2) rotate(-90)"/>
    </g>
    <circle class="st3" cx="58.4" cy="64.3" r="2.3"/>
    <circle class="st2" cx="65.4" cy="61.8" r="2.3"/>
    <g>
      <line class="st0" x1="46.1" y1="74.9" x2="49" y2="74.9"/>
      <line class="st0" x1="54" y1="74.9" x2="56.9" y2="74.9"/>
    </g>
  </g>
</svg>