<?xml version="1.0" encoding="UTF-8"?>
<svg id="Capa_1" xmlns="http://www.w3.org/2000/svg" version="1.1" viewBox="0 0 103 103">
  <!-- Generator: Adobe Illustrator 29.0.0, SVG Export Plug-In . SVG Version: 2.1.0 Build 186)  -->
  <defs>
    <style>
      .st0 {
        fill: #232221;
        stroke-miterlimit: 10;
        stroke-width: 3px;
      }

      .st0, .st1 {
        stroke: #a5a4a4;
      }

      .st1 {
        fill: none;
        stroke-linecap: round;
        stroke-linejoin: round;
        stroke-width: 2px;
      }
    </style>
  </defs>
  <circle class="st0" cx="51.5" cy="51.5" r="50"/>
  <g>
    <path class="st1" d="M33.6,20.3h35.7c1.7,0,3.1,1.4,3.1,3.1v50.3c0,5-4.1,9-9,9h-29.8c-1.7,0-3.1-1.4-3.1-3.1V23.4c0-1.7,1.4-3.1,3.1-3.1Z"/>
    <rect class="st1" x="35.6" y="26.1" width="31.8" height="30.1"/>
    <polygon class="st1" points="48.6 66.5 44.3 66.5 44.3 62.2 40.2 62.2 40.2 66.5 35.9 66.5 35.9 70.6 40.2 70.6 40.2 74.9 44.3 74.9 44.3 70.6 48.6 70.6 48.6 66.5"/>
    <circle class="st1" cx="64" cy="66.1" r="3.5"/>
    <circle class="st1" cx="57.7" cy="74.9" r="3.5"/>
  </g>
</svg>