<?xml version="1.0" encoding="UTF-8"?>
<svg id="Capa_1" xmlns="http://www.w3.org/2000/svg" version="1.1" viewBox="0 0 103 103">
  <!-- Generator: Adobe Illustrator 29.0.0, SVG Export Plug-In . SVG Version: 2.1.0 Build 186)  -->
  <defs>
    <style>
      .st0, .st1 {
        stroke-miterlimit: 10;
      }

      .st0, .st1, .st2 {
        fill: #232221;
      }

      .st0, .st1, .st2, .st3 {
        stroke: #a5a4a4;
      }

      .st0, .st2, .st3 {
        stroke-width: 2px;
      }

      .st1 {
        stroke-width: 3px;
      }

      .st2, .st3 {
        stroke-linecap: round;
        stroke-linejoin: round;
      }

      .st3 {
        fill: none;
      }
    </style>
  </defs>
  <circle class="st1" cx="51.5" cy="51.5" r="50"/>
  <g>
    <rect class="st3" x="20.6" y="26.7" width="61.8" height="49.5" rx="4.6" ry="4.6"/>
    <rect class="st3" x="25.1" y="31.8" width="52.8" height="31"/>
    <line class="st3" x1="25.1" y1="38.6" x2="31.3" y2="38.6"/>
    <line class="st3" x1="25.1" y1="42.8" x2="31.3" y2="42.8"/>
    <line class="st3" x1="25.1" y1="47" x2="31.3" y2="47"/>
    <line class="st3" x1="25.1" y1="51.2" x2="31.3" y2="51.2"/>
    <line class="st3" x1="25.1" y1="55.3" x2="31.3" y2="55.3"/>
    <circle class="st0" cx="55.5" cy="49.6" r="17.8"/>
    <rect class="st3" x="43" y="46.6" width="25.3" height="4.7" rx="2.3" ry="2.3"/>
    <path class="st3" d="M50.4,66.7v-5.1s4.2,3,9.7,0c0,0,0,5.2,0,5.2"/>
    <rect class="st0" x="25.1" y="66.9" width="4.4" height="4.4" rx="1.6" ry="1.6"/>
    <rect class="st0" x="33.3" y="66.9" width="9.1" height="4.4" rx="1.6" ry="1.6"/>
    <line class="st2" x1="64.7" y1="71.2" x2="72.7" y2="71.2"/>
    <line class="st2" x1="76.4" y1="71.2" x2="77.8" y2="71.2"/>
  </g>
</svg>