<?xml version="1.0" encoding="UTF-8"?>
<svg id="Layer_1" xmlns="http://www.w3.org/2000/svg" version="1.1" viewBox="0 0 103 103">
  <!-- Generator: Adobe Illustrator 30.0.0, SVG Export Plug-In . SVG Version: 2.1.1 Build 123)  -->
  <defs>
    <style>
      .st0 {
        stroke-miterlimit: 10;
        stroke-width: 3px;
      }

      .st0, .st1 {
        fill: #232221;
        stroke: #a5a5a5;
      }

      .st1 {
        stroke-linecap: round;
        stroke-linejoin: round;
        stroke-width: 2px;
      }
    </style>
  </defs>
  <circle class="st0" cx="51.5" cy="51.5" r="50"/>
  <g id="layer1">
    <path id="path2830" class="st1" d="M15.61,63.71l6.23-24.51h5.77l3,10.7,3.11-10.7h5.44l5.1,18.06,12.43-.02c1.31-.01,1.39-2.71-.1-2.71l-7.24-.1c-3.11.03-6.39-3.33-6.23-7.81.03-4.11,3.62-7.34,8.2-7.34l18.47-.02,4.7,6.4,4.59-6.45,7.64.06-8.38,11.78,9.06,12.77-7.6-.02-5.27-7.33-5.02,7.33h-7.76s8.83-12.63,8.83-12.63l-3.85-5.6-16.05.02c-1.75.02-1.69,2.77.01,2.72l6.76.1c2.86.02,6.88,2.99,6.78,7.63.04,5.39-4.81,7.85-7.15,7.72l-17.7.02-2.94-11.03-2.94,11.01h-5.59l-3.07-10.95-2.7,10.97-6.53-.04Z"/>
  </g>
</svg>