<?xml version="1.0" encoding="UTF-8"?>
<svg id="Layer_1" xmlns="http://www.w3.org/2000/svg" version="1.1" viewBox="0 0 103 103">
  <!-- Generator: Adobe Illustrator 30.0.0, SVG Export Plug-In . SVG Version: 2.1.1 Build 123)  -->
  <defs>
    <style>
      .st0 {
        stroke-dasharray: 2 4;
      }

      .st0, .st1, .st2 {
        stroke: #a5a5a5;
      }

      .st0, .st2 {
        fill: none;
        stroke-linecap: round;
        stroke-linejoin: round;
        stroke-width: 2px;
      }

      .st1 {
        fill: #232221;
        stroke-miterlimit: 10;
        stroke-width: 3px;
      }
    </style>
  </defs>
  <circle class="st1" cx="51.5" cy="51.5" r="50"/>
  <g>
    <polygon class="st2" points="38.29 70.34 25.08 74.06 25.08 32.66 38.29 28.94 38.29 70.34"/>
    <polygon class="st2" points="38.29 70.34 51.5 74.06 51.5 32.66 38.29 28.94 38.29 70.34"/>
    <polygon class="st2" points="64.71 70.34 51.5 74.06 51.5 32.66 64.71 28.94 64.71 70.34"/>
    <polygon class="st2" points="64.71 70.34 77.92 74.06 77.92 32.66 64.71 28.94 64.71 70.34"/>
    <g>
      <line class="st2" x1="69.08" y1="59.89" x2="72.67" y2="63.47"/>
      <line class="st2" x1="69.08" y1="63.47" x2="72.67" y2="59.89"/>
    </g>
    <g>
      <line class="st2" x1="29.33" y1="39.53" x2="32.92" y2="43.11"/>
      <line class="st2" x1="29.33" y1="43.11" x2="32.92" y2="39.53"/>
    </g>
    <g>
      <line class="st2" x1="36.24" y1="41.32" x2="37.24" y2="41.32"/>
      <path class="st0" d="M41.24,41.32h14.32c2.81,0,5.09,2.28,5.09,5.09s-2.28,5.09-5.09,5.09h-8.12c-2.81,0-5.09,2.28-5.09,5.09s2.28,5.09,5.09,5.09h15.58"/>
      <line class="st2" x1="65.01" y1="61.68" x2="66.01" y2="61.68"/>
    </g>
  </g>
</svg>