<?xml version="1.0" encoding="UTF-8"?>
<svg id="Capa_1" xmlns="http://www.w3.org/2000/svg" version="1.1" viewBox="0 0 103 103">
  <!-- Generator: Adobe Illustrator 29.0.0, SVG Export Plug-In . SVG Version: 2.1.0 Build 186)  -->
  <defs>
    <style>
      .st0 {
        fill: #232221;
        stroke-miterlimit: 10;
        stroke-width: 3px;
      }

      .st0, .st1 {
        stroke: #a5a4a4;
      }

      .st2 {
        fill: #a5a4a4;
      }

      .st1 {
        fill: none;
        stroke-linecap: round;
        stroke-linejoin: round;
        stroke-width: 2px;
      }
    </style>
  </defs>
  <circle class="st0" cx="51.5" cy="51.5" r="50"/>
  <g>
    <rect class="st1" x="25.7" y="52.1" width="51.7" height="27.9" rx="2.3" ry="2.3"/>
    <rect class="st1" x="25.7" y="23" width="51.7" height="25.1" rx="2.3" ry="2.3"/>
    <path class="st1" d="M27.5,52.1c-1.2,0-2.2-.5-2.2-1.7h0c0-1.2,1-2.2,2.2-2.2h48c1.2,0,2.2,1,2.2,2.2h0c0,1.2-1,1.7-2.2,1.7"/>
    <rect class="st1" x="36.9" y="29.4" width="29.1" height="15.1"/>
    <rect class="st1" x="41" y="57.3" width="21" height="14.9"/>
    <line class="st1" x1="34.2" y1="48.2" x2="34.2" y2="51.8"/>
    <line class="st1" x1="68.2" y1="48.2" x2="68.2" y2="51.8"/>
    <g>
      <rect class="st2" x="30.3" y="68.1" width="2.5" height="6.7"/>
      <rect class="st2" x="30.3" y="68.1" width="2.5" height="6.7" transform="translate(-39.9 103) rotate(-90)"/>
    </g>
    <g>
      <line class="st1" x1="41" y1="76" x2="44.2" y2="76"/>
      <line class="st1" x1="50" y1="76" x2="53.1" y2="76"/>
      <line class="st1" x1="59" y1="76" x2="62.1" y2="76"/>
    </g>
    <circle class="st1" cx="31.5" cy="61" r="2.9"/>
    <g>
      <g>
        <circle class="st2" cx="71.3" cy="58.8" r="1.5"/>
        <circle class="st2" cx="51.5" cy="26" r=".9"/>
        <circle class="st2" cx="71.3" cy="64.6" r="1.5"/>
      </g>
      <g>
        <circle class="st2" cx="68.4" cy="61.7" r="1.5"/>
        <circle class="st2" cx="74.1" cy="61.7" r="1.5"/>
      </g>
    </g>
    <g>
      <line class="st1" x1="37.6" y1="52.8" x2="37.6" y2="80"/>
      <line class="st1" x1="65.4" y1="52.8" x2="65.4" y2="80"/>
    </g>
  </g>
</svg>