<?xml version="1.0" encoding="UTF-8"?>
<svg id="Capa_1" xmlns="http://www.w3.org/2000/svg" version="1.1" viewBox="0 0 103 103">
  <!-- Generator: Adobe Illustrator 29.0.0, SVG Export Plug-In . SVG Version: 2.1.0 Build 186)  -->
  <defs>
    <style>
      .st0 {
        fill: #232221;
        stroke-miterlimit: 10;
        stroke-width: 3px;
      }

      .st0, .st1 {
        stroke: #a5a4a4;
      }

      .st2 {
        fill: #a5a4a4;
      }

      .st1 {
        fill: none;
        stroke-linecap: round;
        stroke-linejoin: round;
        stroke-width: 2px;
      }
    </style>
  </defs>
  <circle class="st0" cx="51.5" cy="51.5" r="50"/>
  <g>
    <path class="st1" d="M50.8,63c8.7,0,15.9.9,19.8,2.3s5,2.1,7.8.8c3.8-1.8,3.2-6.7,3.2-6.7l-1.3-30.6c-.4-7-6-6.4-6-6.4h-23.4s-22.1,0-22.1,0c0,0-5.6-.5-6,6.4l-1.3,30.6s-.6,4.9,3.2,6.7,3.9.5,7.8-.8,9.8-2.3,18.5-2.3Z"/>
    <path class="st1" d="M70.3,22.4l-3.1,17.4s-.9,7.6-14.8,7.6h-1.8c-13.8,0-14.8-7.6-14.8-7.6l-3.1-17.4"/>
    <rect class="st1" x="38.4" y="33.4" width="26.3" height="5.5" rx="2.7" ry="2.7"/>
    <g>
      <path class="st1" d="M21.3,61.5s-2.5,9.7,6.2,9.7,6.3-3,6.3-3v6.3s-.8,2.1-6.4,2.1-7.7-5.1-7.7-5.1v-6.3s0-3.5,1.6-3.8Z"/>
      <path class="st1" d="M81.7,61.5s2.5,9.7-6.2,9.7-6.3-3-6.3-3v6.3s.8,2.1,6.4,2.1c5.6,0,7.7-5.1,7.7-5.1v-6.3s0-3.5-1.6-3.8Z"/>
    </g>
    <line class="st1" x1="33.8" y1="74.5" x2="69.2" y2="74.5"/>
    <rect class="st2" x="32.7" y="51.3" width="4.2" height="8.6" rx="2.1" ry="2.1"/>
    <rect class="st2" x="66.1" y="51.3" width="4.2" height="8.6" rx="2.1" ry="2.1"/>
    <rect class="st1" x="43.8" y="51.3" width="15.4" height="6.7" rx="1.9" ry="1.9"/>
    <g>
      <circle class="st2" cx="37.4" cy="70.3" r="1.4"/>
      <circle class="st2" cx="43.1" cy="70.3" r="1.4"/>
    </g>
    <g>
      <circle class="st2" cx="59.8" cy="70.3" r="1.4"/>
      <circle class="st2" cx="65.6" cy="70.3" r="1.4"/>
    </g>
    <path class="st2" d="M51.8,65.6h3.8s.7.5.7.5v1.4s-.7,1.6-4.5,1.6h-.5c-3.8,0-4.5-1.6-4.5-1.6v-1.4l.7-.5h3.8"/>
  </g>
</svg>