<?xml version="1.0" encoding="UTF-8"?>
<svg id="Capa_1" xmlns="http://www.w3.org/2000/svg" version="1.1" viewBox="0 0 103 103">
  <!-- Generator: Adobe Illustrator 29.0.0, SVG Export Plug-In . SVG Version: 2.1.0 Build 186)  -->
  <defs>
    <style>
      .st0 {
        fill: #232221;
        stroke-miterlimit: 10;
        stroke-width: 3px;
      }

      .st0, .st1 {
        stroke: #a5a4a4;
      }

      .st2 {
        fill: #a5a4a4;
      }

      .st1 {
        fill: none;
        stroke-linecap: round;
        stroke-linejoin: round;
        stroke-width: 2px;
      }
    </style>
  </defs>
  <circle class="st0" cx="51.5" cy="51.5" r="50"/>
  <g>
    <rect class="st1" x="23.9" y="52.1" width="55.1" height="29.7" rx="2.3" ry="2.3"/>
    <rect class="st1" x="23.9" y="21.1" width="55.1" height="26.8" rx="2.3" ry="2.3"/>
    <rect class="st1" x="23.6" y="47.9" width="55.9" height="4.9" rx="2.2" ry="2.2"/>
    <rect class="st1" x="37.8" y="25.7" width="27.4" height="18.3"/>
    <rect class="st1" x="37.8" y="57.6" width="27.4" height="18.3"/>
    <g>
      <line class="st1" x1="30.7" y1="62.6" x2="30.7" y2="69.6"/>
      <line class="st1" x1="27.2" y1="66.1" x2="34.2" y2="66.1"/>
    </g>
    <g>
      <g>
        <circle class="st2" cx="72.2" cy="63.2" r="1.6"/>
        <circle class="st2" cx="72.2" cy="70.1" r="1.6"/>
      </g>
      <g>
        <circle class="st2" cx="68.8" cy="66.7" r="1.6"/>
        <circle class="st2" cx="75.6" cy="66.7" r="1.6"/>
      </g>
    </g>
    <line class="st1" x1="33" y1="47.9" x2="33" y2="52.9"/>
    <line class="st1" x1="69.3" y1="47.9" x2="69.3" y2="52.9"/>
    <g>
      <circle class="st2" cx="69.1" cy="32.8" r="1"/>
      <circle class="st2" cx="72.2" cy="32.8" r="1"/>
      <circle class="st2" cx="75.2" cy="32.8" r="1"/>
    </g>
    <g>
      <circle class="st2" cx="69.1" cy="35.8" r="1"/>
      <circle class="st2" cx="72.2" cy="35.8" r="1"/>
      <circle class="st2" cx="75.2" cy="35.8" r="1"/>
    </g>
    <g>
      <circle class="st2" cx="27.9" cy="32.8" r="1"/>
      <circle class="st2" cx="30.9" cy="32.8" r="1"/>
      <circle class="st2" cx="33.9" cy="32.8" r="1"/>
    </g>
    <g>
      <circle class="st2" cx="27.9" cy="35.8" r="1"/>
      <circle class="st2" cx="30.9" cy="35.8" r="1"/>
      <circle class="st2" cx="33.9" cy="35.8" r="1"/>
    </g>
  </g>
</svg>