<?xml version="1.0" encoding="UTF-8"?>
<svg id="Layer_1" xmlns="http://www.w3.org/2000/svg" version="1.1" viewBox="0 0 103 103">
  <!-- Generator: Adobe Illustrator 30.0.0, SVG Export Plug-In . SVG Version: 2.1.1 Build 123)  -->
  <defs>
    <style>
      .st0 {
        fill: #a5a5a5;
      }

      .st1 {
        fill: #232221;
        stroke-miterlimit: 10;
        stroke-width: 3px;
      }

      .st1, .st2 {
        stroke: #a5a5a5;
      }

      .st2 {
        fill: none;
        stroke-linecap: round;
        stroke-linejoin: round;
        stroke-width: 2px;
      }
    </style>
  </defs>
  <circle class="st1" cx="51.5" cy="51.5" r="50"/>
  <g>
    <rect class="st2" x="19.38" y="52.94" width="64.24" height="13.01"/>
    <polyline class="st2" points="19.38 52.94 24.24 27.69 78.58 27.69 83.62 52.94"/>
    <path class="st2" d="M58.07,27.69"/>
    <polygon class="st2" points="78.49 75.31 24.51 75.31 19.38 65.95 83.62 65.95 78.49 75.31"/>
    <line class="st2" x1="58.07" y1="27.69" x2="58.07" y2="75.31"/>
    <line class="st2" x1="70.84" y1="27.69" x2="70.84" y2="75.31"/>
    <polyline class="st2" points="25.14 65.95 25.14 46.51 70.84 46.51"/>
    <line class="st2" x1="58.07" y1="32.18" x2="70.84" y2="32.18"/>
    <rect class="st0" x="31.83" y="56.35" width="16.4" height="3.1"/>
    <rect class="st0" x="28.83" y="68.08" width="5.93" height="2.93"/>
    <rect class="st0" x="38.76" y="68.08" width="5.93" height="2.93"/>
    <g>
      <polyline class="st0" points="59.84 65.95 59.84 72.32 62.53 72.32 62.53 65.95"/>
      <polyline class="st0" points="66.38 65.95 66.38 72.32 69.08 72.32 69.08 65.95"/>
    </g>
  </g>
</svg>