<?xml version="1.0" encoding="UTF-8"?>
<svg id="Layer_1" xmlns="http://www.w3.org/2000/svg" version="1.1" viewBox="0 0 103 103">
  <!-- Generator: Adobe Illustrator 30.0.0, SVG Export Plug-In . SVG Version: 2.1.1 Build 123)  -->
  <defs>
    <style>
      .st0 {
        fill: #a5a5a5;
      }

      .st1 {
        fill: #232221;
        stroke-miterlimit: 10;
        stroke-width: 3px;
      }

      .st1, .st2 {
        stroke: #a5a5a5;
      }

      .st2 {
        fill: none;
        stroke-linecap: round;
        stroke-linejoin: round;
        stroke-width: 2px;
      }
    </style>
  </defs>
  <circle class="st1" cx="51.5" cy="51.5" r="50"/>
  <g>
    <path class="st2" d="M52.08,31.6h22.38s3.92,3.92,3.92,3.92h7.26s5.14,3.79,5.14,16.91c0,13.11-4.5,15.68-4.5,15.68h-7.97s-3.28,3.28-3.28,3.28h-22.96s-1.15,0-1.15,0h-22.96l-3.28-3.28h-7.97s-4.5-2.57-4.5-15.68,5.14-16.91,5.14-16.91h7.26l3.92-3.92h37.41"/>
    <rect class="st2" x="33.76" y="38.93" width="35.48" height="25.33"/>
    <g>
      <circle class="st0" cx="79.79" cy="43.74" r="1.94"/>
      <circle class="st0" cx="79.79" cy="53.62" r="1.94"/>
    </g>
    <g>
      <circle class="st0" cx="74.85" cy="48.68" r="1.94"/>
      <circle class="st0" cx="84.73" cy="48.68" r="1.94"/>
    </g>
    <circle class="st2" cx="25.24" cy="61.19" r="2.95"/>
    <g>
      <polygon class="st0" points="20.76 42.42 20.76 45.34 22.74 47.32 24.75 45.31 24.75 42.42 20.76 42.42"/>
      <polygon class="st0" points="24.75 55.23 24.75 52.31 22.77 50.33 20.76 52.34 20.76 55.23 24.75 55.23"/>
    </g>
    <g>
      <polygon class="st0" points="16.35 50.82 19.27 50.82 21.25 48.84 19.24 46.83 16.35 46.83 16.35 50.82"/>
      <polygon class="st0" points="29.16 46.83 26.24 46.83 24.26 48.81 26.26 50.82 29.16 50.82 29.16 46.83"/>
    </g>
  </g>
</svg>