<?xml version="1.0" encoding="UTF-8"?>
<svg id="Layer_1" xmlns="http://www.w3.org/2000/svg" version="1.1" viewBox="0 0 110 88.19">
  <!-- Generator: Adobe Illustrator 30.0.0, SVG Export Plug-In . SVG Version: 2.1.1 Build 123)  -->
  <defs>
    <style>
      .st0 {
        fill: #a5a5a5;
      }
    </style>
  </defs>
  <path class="st0" d="M109.82,71.14c-.87-5.44-8.81-36.89-12.04-44.07-4.48-9.97-15.77-15.27-26.26-12.33-6.58,1.84-12.13,2.77-16.52,2.77s-9.94-.93-16.52-2.77c-10.49-2.95-21.78,2.35-26.26,12.32C8.99,34.25,1.05,65.69.18,71.14c-.64,4.07.46,8.26,3.03,11.49,2.57,3.23,6.41,5.24,10.53,5.53.34.02.68.04,1.02.04,4.44,0,8.6-1.98,11.42-5.43,4.55-5.57,7.96-9.61,10.15-12.02,1.32-1.45,2.87-2.95,4.61-4.44,3.88-3.35,8.88-5.19,14.07-5.19s10.19,1.84,14.07,5.19c1.73,1.5,3.29,2.99,4.61,4.44,2.19,2.4,5.6,6.45,10.15,12.02,2.82,3.45,6.98,5.43,11.42,5.43.34,0,.68-.02,1.02-.04h0c4.12-.29,7.95-2.3,10.52-5.53,2.57-3.23,3.67-7.41,3.03-11.49h-.01ZM67.58,17.83l-.88,1.37c-1.54,2.4-4.15,3.83-7,3.83h-9.39c-2.85,0-5.46-1.43-7-3.83l-.88-1.37c4.84,1.13,9.06,1.7,12.58,1.7s7.74-.57,12.58-1.7h-.01ZM105.22,81.38c-2.22,2.79-5.53,4.53-9.09,4.77-.3.02-.59.03-.89.03-3.83,0-7.43-1.71-9.86-4.69-4.57-5.6-8.01-9.67-10.22-12.1-1.38-1.51-2.99-3.06-4.78-4.61-4.25-3.66-9.71-5.68-15.38-5.68s-11.13,2.02-15.38,5.68c-1.8,1.55-3.4,3.1-4.78,4.61-2.21,2.43-5.65,6.5-10.22,12.1-2.43,2.98-6.03,4.69-9.86,4.69-.3,0-.6-.01-.89-.03-3.56-.25-6.87-1.99-9.09-4.77-2.22-2.79-3.17-6.4-2.62-9.92.86-5.39,8.71-36.48,11.89-43.56,4.08-9.07,14.35-13.89,23.88-11.22.56.16,1.1.3,1.65.44l2.03,3.16c1.91,2.98,5.16,4.75,8.69,4.75h9.39c3.54,0,6.78-1.78,8.69-4.75l2.03-3.16c.55-.14,1.09-.28,1.65-.44,9.54-2.68,19.8,2.14,23.88,11.22,3.18,7.08,11.03,38.17,11.89,43.56.56,3.52-.4,7.14-2.62,9.92h.01Z"/>
  <path class="st0" d="M25.42,13.94c-3.27-2.21-6.81-6.06-5.04-10.84.76-2.05-2.28-4.01-3.84-2.64-5.23,6.27-1.98,15.2-.24,18.92,2.58-2.48,5.7-4.34,9.12-5.44Z"/>
  <path class="st0" d="M84.58,13.94c3.42,1.1,6.54,2.96,9.12,5.44,1.74-3.73,4.99-12.66-.24-18.92-1.57-1.37-4.6.59-3.84,2.64,1.77,4.78-1.77,8.64-5.04,10.84Z"/>
  <path class="st0" d="M109.82,71.14c-.87-5.44-8.81-36.89-12.04-44.07-4.48-9.97-15.77-15.27-26.26-12.33-6.58,1.84-12.13,2.77-16.52,2.77s-9.94-.93-16.52-2.77c-10.49-2.95-21.78,2.35-26.26,12.32C8.99,34.25,1.05,65.69.18,71.14c-.64,4.07.46,8.26,3.03,11.49,2.57,3.23,6.41,5.24,10.53,5.53.34.02.68.04,1.02.04,4.44,0,8.6-1.98,11.42-5.43,4.55-5.57,7.96-9.61,10.15-12.02,1.32-1.45,2.87-2.95,4.61-4.44,3.88-3.35,8.88-5.19,14.07-5.19s10.19,1.84,14.07,5.19c1.73,1.5,3.29,2.99,4.61,4.44,2.19,2.4,5.6,6.45,10.15,12.02,2.82,3.45,6.98,5.43,11.42,5.43.34,0,.68-.02,1.02-.04h0c4.12-.29,7.95-2.3,10.52-5.53,2.57-3.23,3.67-7.41,3.03-11.49h-.01ZM67.58,17.83l-.88,1.37c-1.54,2.4-4.15,3.83-7,3.83h-9.39c-2.85,0-5.46-1.43-7-3.83l-.88-1.37c4.84,1.13,9.06,1.7,12.58,1.7s7.74-.57,12.58-1.7h-.01ZM105.22,81.38c-2.22,2.79-5.53,4.53-9.09,4.77-.3.02-.59.03-.89.03-3.83,0-7.43-1.71-9.86-4.69-4.57-5.6-8.01-9.67-10.22-12.1-1.38-1.51-2.99-3.06-4.78-4.61-4.25-3.66-9.71-5.68-15.38-5.68s-11.13,2.02-15.38,5.68c-1.8,1.55-3.4,3.1-4.78,4.61-2.21,2.43-5.65,6.5-10.22,12.1-2.43,2.98-6.03,4.69-9.86,4.69-.3,0-.6-.01-.89-.03-3.56-.25-6.87-1.99-9.09-4.77-2.22-2.79-3.17-6.4-2.62-9.92.86-5.39,8.71-36.48,11.89-43.56,4.08-9.07,14.35-13.89,23.88-11.22.56.16,1.1.3,1.65.44l2.03,3.16c1.91,2.98,5.16,4.75,8.69,4.75h9.39c3.54,0,6.78-1.78,8.69-4.75l2.03-3.16c.55-.14,1.09-.28,1.65-.44,9.54-2.68,19.8,2.14,23.88,11.22,3.18,7.08,11.03,38.17,11.89,43.56.56,3.52-.4,7.14-2.62,9.92h.01Z"/>
  <path class="st0" d="M61.66,50.13h-13.32c-1.38,0-2.5,1.12-2.5,2.5v2.22c0,1.38,1.12,2.5,2.5,2.5h13.32c1.38,0,2.5-1.12,2.5-2.5v-2.22c0-1.38-1.12-2.5-2.5-2.5ZM62.16,54.85c0,.27-.22.49-.49.49h-13.32c-.27,0-.49-.22-.49-.49v-2.22c0-.27.22-.49.49-.49h13.32c.27,0,.49.22.49.49v2.22Z"/>
  <path class="st0" d="M73.69,72.46v8.23c0,.99,1.27,1.4,1.85.6l2.62-3.61c-1.77-2.12-3.27-3.87-4.47-5.22Z"/>
  <path class="st0" d="M31.83,77.68l2.62,3.61c.58.8,1.85.39,1.85-.6v-8.23c-1.21,1.36-2.7,3.11-4.47,5.22Z"/>
  <g>
    <path class="st0" d="M31.61,21.67c-8.4,0-15.23,6.83-15.23,15.23s6.83,15.23,15.23,15.23,15.23-6.83,15.23-15.23-6.83-15.23-15.23-15.23ZM31.61,50.13c-7.29,0-13.22-5.93-13.22-13.22s5.93-13.22,13.22-13.22,13.22,5.93,13.22,13.22-5.93,13.22-13.22,13.22Z"/>
    <path class="st0" d="M43.34,36.3c-1.96-1.02-4.18-1.59-6.54-1.59-6.5,0-11.98,4.36-13.68,10.32,2.14,2.24,5.15,3.64,8.49,3.64,6.49,0,11.76-5.28,11.76-11.77,0-.2-.02-.4-.03-.6ZM37.76,40.72c-1.05,0-1.91-.86-1.91-1.91s.86-1.91,1.91-1.91,1.91.86,1.91,1.91-.86,1.91-1.91,1.91Z"/>
  </g>
  <g>
    <path class="st0" d="M63.16,36.91c0,8.4,6.83,15.23,15.23,15.23s15.23-6.83,15.23-15.23-6.83-15.23-15.23-15.23-15.23,6.83-15.23,15.23ZM65.17,36.91c0-7.29,5.93-13.22,13.22-13.22s13.22,5.93,13.22,13.22-5.93,13.22-13.22,13.22-13.22-5.93-13.22-13.22Z"/>
    <path class="st0" d="M73.2,34.71c-2.36,0-4.58.57-6.54,1.59,0,.2-.03.4-.03.6,0,6.49,5.27,11.77,11.76,11.77,3.34,0,6.35-1.4,8.49-3.64-1.7-5.96-7.18-10.32-13.68-10.32ZM72.24,40.72c-1.05,0-1.91-.86-1.91-1.91s.86-1.91,1.91-1.91,1.91.86,1.91,1.91-.86,1.91-1.91,1.91Z"/>
  </g>
</svg>