<?xml version="1.0" encoding="UTF-8"?>
<svg id="Layer_1" xmlns="http://www.w3.org/2000/svg" version="1.1" viewBox="0 0 103 103">
  <!-- Generator: Adobe Illustrator 30.0.0, SVG Export Plug-In . SVG Version: 2.1.1 Build 123)  -->
  <defs>
    <style>
      .st0 {
        fill: #a5a5a5;
      }

      .st1 {
        fill: #232221;
        stroke-miterlimit: 10;
        stroke-width: 3px;
      }

      .st1, .st2 {
        stroke: #a5a5a5;
      }

      .st2 {
        fill: none;
        stroke-linecap: round;
        stroke-linejoin: round;
        stroke-width: 2px;
      }
    </style>
  </defs>
  <circle class="st1" cx="51.5" cy="51.5" r="50"/>
  <g>
    <rect class="st2" x="10.05" y="31.36" width="82.9" height="40.28" rx="18.55" ry="18.55"/>
    <path class="st2" d="M15.06,38.22s9.61,2.44,12.33-6.66"/>
    <path class="st2" d="M87.57,38.22s-9.61,2.44-12.33-6.66"/>
    <line class="st2" x1="30.66" y1="31.36" x2="30.66" y2="71.64"/>
    <line class="st2" x1="71.72" y1="31.36" x2="71.72" y2="71.64"/>
    <line class="st2" x1="30.66" y1="36.34" x2="71.72" y2="36.34"/>
    <line class="st2" x1="30.66" y1="65.01" x2="71.72" y2="65.01"/>
    <circle class="st2" cx="81.66" cy="48.82" r="6.42"/>
    <g>
      <circle class="st2" cx="21.21" cy="48.82" r="6.42"/>
      <line class="st2" x1="21.21" y1="42.4" x2="21.21" y2="55.24"/>
      <line class="st2" x1="14.79" y1="48.82" x2="27.63" y2="48.82"/>
    </g>
    <g>
      <g>
        <circle class="st0" cx="81.66" cy="46.39" r="1.19"/>
        <circle class="st0" cx="81.66" cy="51.25" r="1.19"/>
      </g>
      <g>
        <circle class="st0" cx="79.23" cy="48.82" r="1.19"/>
        <circle class="st0" cx="84.09" cy="48.82" r="1.19"/>
      </g>
    </g>
    <circle class="st2" cx="23.02" cy="62.09" r="3.26"/>
    <circle class="st2" cx="78.63" cy="62.09" r="3.26"/>
  </g>
</svg>