<?xml version="1.0" encoding="UTF-8"?>
<svg id="Layer_1" xmlns="http://www.w3.org/2000/svg" version="1.1" viewBox="0 0 103 103">
  <!-- Generator: Adobe Illustrator 30.0.0, SVG Export Plug-In . SVG Version: 2.1.1 Build 123)  -->
  <defs>
    <style>
      .st0 {
        fill: #232221;
        stroke-miterlimit: 10;
        stroke-width: 3px;
      }

      .st0, .st1 {
        stroke: #a5a5a5;
      }

      .st1 {
        fill: none;
        stroke-linecap: round;
        stroke-linejoin: round;
        stroke-width: 2px;
      }
    </style>
  </defs>
  <circle class="st0" cx="51.5" cy="51.5" r="50"/>
  <g>
    <polygon class="st1" points="17.7 52.31 84.95 52.31 74.91 25.97 26.3 25.97 17.7 52.31"/>
    <polyline class="st1" points="84.95 52.31 86.18 60.21 16.82 60.21 17.7 52.31"/>
    <polyline class="st1" points="19.11 60.21 17.7 65.13 16.82 73.03 86.18 73.03 84.95 64.25 83.61 60.21"/>
    <line class="st1" x1="17.7" y1="65.13" x2="84.95" y2="65.13"/>
    <line class="st1" x1="39.65" y1="65.13" x2="39.65" y2="73.03"/>
    <polyline class="st1" points="39.65 60.21 39.65 51.61 42.56 25.97"/>
    <line class="st1" x1="53.13" y1="60.21" x2="53.13" y2="65.13"/>
    <line class="st1" x1="58.22" y1="60.21" x2="58.22" y2="65.13"/>
    <line class="st1" x1="63.32" y1="60.21" x2="63.32" y2="65.13"/>
    <line class="st1" x1="68.42" y1="60.21" x2="68.42" y2="65.13"/>
  </g>
</svg>