<?xml version="1.0" encoding="UTF-8"?>
<svg id="Layer_1" xmlns="http://www.w3.org/2000/svg" version="1.1" viewBox="0 0 110 88.2">
  <!-- Generator: Adobe Illustrator 29.0.0, SVG Export Plug-In . SVG Version: 2.1.0 Build 186)  -->
  <defs>
    <style>
      .st0 {
        fill: #e5a728;
      }
    </style>
  </defs>
  <path class="st0" d="M109.8,71.1c-.9-5.4-8.8-36.9-12-44.1-4.5-10-15.8-15.3-26.3-12.3-6.6,1.8-12.1,2.8-16.5,2.8s-9.9-.9-16.5-2.8c-10.5-2.9-21.8,2.4-26.3,12.3C9,34.2,1,65.7.2,71.1c-.6,4.1.5,8.3,3,11.5,2.6,3.2,6.4,5.2,10.5,5.5.3,0,.7,0,1,0,4.4,0,8.6-2,11.4-5.4,4.5-5.6,8-9.6,10.2-12,1.3-1.4,2.9-2.9,4.6-4.4,3.9-3.3,8.9-5.2,14.1-5.2s10.2,1.8,14.1,5.2c1.7,1.5,3.3,3,4.6,4.4,2.2,2.4,5.6,6.4,10.2,12,2.8,3.4,7,5.4,11.4,5.4s.7,0,1,0h0c4.1-.3,7.9-2.3,10.5-5.5,2.6-3.2,3.7-7.4,3-11.5,0,0,0,0,0,0ZM67.6,17.8l-.9,1.4c-1.5,2.4-4.2,3.8-7,3.8h-9.4c-2.8,0-5.5-1.4-7-3.8l-.9-1.4c4.8,1.1,9.1,1.7,12.6,1.7s7.7-.6,12.6-1.7h0ZM105.2,81.4c-2.2,2.8-5.5,4.5-9.1,4.8-.3,0-.6,0-.9,0-3.8,0-7.4-1.7-9.9-4.7-4.6-5.6-8-9.7-10.2-12.1-1.4-1.5-3-3.1-4.8-4.6-4.2-3.7-9.7-5.7-15.4-5.7s-11.1,2-15.4,5.7c-1.8,1.6-3.4,3.1-4.8,4.6-2.2,2.4-5.6,6.5-10.2,12.1-2.4,3-6,4.7-9.9,4.7s-.6,0-.9,0c-3.6-.2-6.9-2-9.1-4.8-2.2-2.8-3.2-6.4-2.6-9.9.9-5.4,8.7-36.5,11.9-43.6,4.1-9.1,14.4-13.9,23.9-11.2.6.2,1.1.3,1.7.4l2,3.2c1.9,3,5.2,4.8,8.7,4.8h9.4c3.5,0,6.8-1.8,8.7-4.8l2-3.2c.6-.1,1.1-.3,1.7-.4,9.5-2.7,19.8,2.1,23.9,11.2,3.2,7.1,11,38.2,11.9,43.6.6,3.5-.4,7.1-2.6,9.9h0Z"/>
  <path class="st0" d="M25.4,13.9c-3.3-2.2-6.8-6.1-5-10.8.8-2-2.3-4-3.8-2.6-5.2,6.3-2,15.2-.2,18.9,2.6-2.5,5.7-4.3,9.1-5.4Z"/>
  <path class="st0" d="M84.6,13.9c3.4,1.1,6.5,3,9.1,5.4,1.7-3.7,5-12.7-.2-18.9-1.6-1.4-4.6.6-3.8,2.6,1.8,4.8-1.8,8.6-5,10.8Z"/>
  <path class="st0" d="M109.8,71.1c-.9-5.4-8.8-36.9-12-44.1-4.5-10-15.8-15.3-26.3-12.3-6.6,1.8-12.1,2.8-16.5,2.8s-9.9-.9-16.5-2.8c-10.5-2.9-21.8,2.4-26.3,12.3C9,34.2,1,65.7.2,71.1c-.6,4.1.5,8.3,3,11.5,2.6,3.2,6.4,5.2,10.5,5.5.3,0,.7,0,1,0,4.4,0,8.6-2,11.4-5.4,4.5-5.6,8-9.6,10.2-12,1.3-1.4,2.9-2.9,4.6-4.4,3.9-3.3,8.9-5.2,14.1-5.2s10.2,1.8,14.1,5.2c1.7,1.5,3.3,3,4.6,4.4,2.2,2.4,5.6,6.4,10.2,12,2.8,3.4,7,5.4,11.4,5.4s.7,0,1,0h0c4.1-.3,7.9-2.3,10.5-5.5,2.6-3.2,3.7-7.4,3-11.5,0,0,0,0,0,0ZM67.6,17.8l-.9,1.4c-1.5,2.4-4.2,3.8-7,3.8h-9.4c-2.8,0-5.5-1.4-7-3.8l-.9-1.4c4.8,1.1,9.1,1.7,12.6,1.7s7.7-.6,12.6-1.7h0ZM105.2,81.4c-2.2,2.8-5.5,4.5-9.1,4.8-.3,0-.6,0-.9,0-3.8,0-7.4-1.7-9.9-4.7-4.6-5.6-8-9.7-10.2-12.1-1.4-1.5-3-3.1-4.8-4.6-4.2-3.7-9.7-5.7-15.4-5.7s-11.1,2-15.4,5.7c-1.8,1.6-3.4,3.1-4.8,4.6-2.2,2.4-5.6,6.5-10.2,12.1-2.4,3-6,4.7-9.9,4.7s-.6,0-.9,0c-3.6-.2-6.9-2-9.1-4.8-2.2-2.8-3.2-6.4-2.6-9.9.9-5.4,8.7-36.5,11.9-43.6,4.1-9.1,14.4-13.9,23.9-11.2.6.2,1.1.3,1.7.4l2,3.2c1.9,3,5.2,4.8,8.7,4.8h9.4c3.5,0,6.8-1.8,8.7-4.8l2-3.2c.6-.1,1.1-.3,1.7-.4,9.5-2.7,19.8,2.1,23.9,11.2,3.2,7.1,11,38.2,11.9,43.6.6,3.5-.4,7.1-2.6,9.9h0Z"/>
  <path class="st0" d="M61.7,50.1h-13.3c-1.4,0-2.5,1.1-2.5,2.5v2.2c0,1.4,1.1,2.5,2.5,2.5h13.3c1.4,0,2.5-1.1,2.5-2.5v-2.2c0-1.4-1.1-2.5-2.5-2.5ZM62.2,54.8c0,.3-.2.5-.5.5h-13.3c-.3,0-.5-.2-.5-.5v-2.2c0-.3.2-.5.5-.5h13.3c.3,0,.5.2.5.5v2.2Z"/>
  <path class="st0" d="M73.7,72.5v8.2c0,1,1.3,1.4,1.8.6l2.6-3.6c-1.8-2.1-3.3-3.9-4.5-5.2Z"/>
  <path class="st0" d="M31.8,77.7l2.6,3.6c.6.8,1.8.4,1.8-.6v-8.2c-1.2,1.4-2.7,3.1-4.5,5.2Z"/>
  <g>
    <path class="st0" d="M31.6,21.7c-8.4,0-15.2,6.8-15.2,15.2s6.8,15.2,15.2,15.2,15.2-6.8,15.2-15.2-6.8-15.2-15.2-15.2ZM31.6,50.1c-7.3,0-13.2-5.9-13.2-13.2s5.9-13.2,13.2-13.2,13.2,5.9,13.2,13.2-5.9,13.2-13.2,13.2Z"/>
    <path class="st0" d="M43.3,36.3c-2-1-4.2-1.6-6.5-1.6-6.5,0-12,4.4-13.7,10.3,2.1,2.2,5.1,3.6,8.5,3.6,6.5,0,11.8-5.3,11.8-11.8s0-.4,0-.6ZM37.8,40.7c-1,0-1.9-.9-1.9-1.9s.9-1.9,1.9-1.9,1.9.9,1.9,1.9-.9,1.9-1.9,1.9Z"/>
  </g>
  <g>
    <path class="st0" d="M63.2,36.9c0,8.4,6.8,15.2,15.2,15.2s15.2-6.8,15.2-15.2-6.8-15.2-15.2-15.2-15.2,6.8-15.2,15.2ZM65.2,36.9c0-7.3,5.9-13.2,13.2-13.2s13.2,5.9,13.2,13.2-5.9,13.2-13.2,13.2-13.2-5.9-13.2-13.2Z"/>
    <path class="st0" d="M73.2,34.7c-2.4,0-4.6.6-6.5,1.6,0,.2,0,.4,0,.6,0,6.5,5.3,11.8,11.8,11.8s6.3-1.4,8.5-3.6c-1.7-6-7.2-10.3-13.7-10.3ZM72.2,40.7c-1.1,0-1.9-.9-1.9-1.9s.9-1.9,1.9-1.9,1.9.9,1.9,1.9-.9,1.9-1.9,1.9Z"/>
  </g>
</svg>