<?xml version="1.0" encoding="UTF-8"?>
<svg id="Layer_1" xmlns="http://www.w3.org/2000/svg" version="1.1" viewBox="0 0 103 103">
  <!-- Generator: Adobe Illustrator 30.0.0, SVG Export Plug-In . SVG Version: 2.1.1 Build 123)  -->
  <defs>
    <style>
      .st0, .st1 {
        fill: #232221;
      }

      .st0, .st1, .st2, .st3 {
        stroke: #a5a5a5;
      }

      .st0, .st1, .st3 {
        stroke-miterlimit: 10;
      }

      .st0, .st2, .st3 {
        stroke-width: 2px;
      }

      .st1 {
        stroke-width: 3px;
      }

      .st2 {
        stroke-linecap: round;
        stroke-linejoin: round;
      }

      .st2, .st3 {
        fill: none;
      }
    </style>
  </defs>
  <circle class="st1" cx="51.5" cy="51.5" r="50"/>
  <g>
    <line class="st2" x1="36.99" y1="65.26" x2="66.01" y2="65.26"/>
    <g>
      <rect class="st2" x="18.72" y="64.83" width="18.27" height="13.57"/>
      <rect class="st2" x="66.01" y="64.83" width="18.27" height="13.57"/>
      <line class="st2" x1="36.99" y1="76.87" x2="66.01" y2="76.87"/>
    </g>
    <g>
      <line class="st2" x1="40.44" y1="69.39" x2="49.23" y2="69.39"/>
      <line class="st2" x1="53.77" y1="69.39" x2="62.56" y2="69.39"/>
    </g>
    <g>
      <line class="st2" x1="40.44" y1="73.17" x2="49.23" y2="73.17"/>
      <line class="st2" x1="53.77" y1="73.17" x2="62.56" y2="73.17"/>
    </g>
    <polyline class="st2" points="18.72 64.83 22.09 24.6 39.9 24.6 36.99 64.83"/>
    <polyline class="st2" points="84.28 64.83 80.91 24.6 63.1 24.6 66.01 64.83"/>
    <line class="st2" x1="39.75" y1="26.66" x2="63.1" y2="26.66"/>
    <ellipse class="st0" cx="51.5" cy="43.82" rx="19.4" ry="13.75"/>
    <ellipse class="st3" cx="28.62" cy="56.82" rx="5.02" ry="3.4"/>
    <ellipse class="st3" cx="74.84" cy="56.82" rx="5.02" ry="3.4"/>
    <line class="st3" x1="68.41" y1="50.56" x2="72.17" y2="53.93"/>
    <ellipse class="st3" cx="26.78" cy="48.21" rx="2.53" ry="1.83"/>
  </g>
</svg>