<?xml version="1.0" encoding="UTF-8"?>
<svg id="Capa_1" xmlns="http://www.w3.org/2000/svg" version="1.1" viewBox="0 0 103 103">
  <!-- Generator: Adobe Illustrator 29.0.0, SVG Export Plug-In . SVG Version: 2.1.0 Build 186)  -->
  <defs>
    <style>
      .st0 {
        fill: #232221;
        stroke-miterlimit: 10;
        stroke-width: 3px;
      }

      .st0, .st1 {
        stroke: #a5a4a4;
      }

      .st1 {
        fill: none;
        stroke-linecap: round;
        stroke-linejoin: round;
        stroke-width: 2px;
      }
    </style>
  </defs>
  <circle class="st0" cx="51.5" cy="51.5" r="50"/>
  <g>
    <path class="st1" d="M59,69.6v-6.1c.6-.5,3-2.6,5.6-4.8,2.3-2,4.5-3.9,6.9-5.8,1.7-1.4,5.1-4.1,5.2-6.7.1-3-2-5-5.2-5s-4.2,1.1-5.5,2.2c-1.4,1.2-3.1,2.7-3.1,2.7l-5-5.5c4.3-4.8,8.9-7.2,13.7-7.2,10.2-.3,17.9,11.1,10.2,20.1-2.9,3.1-6,6-9.3,8.6h13.3v7.5h-26.5Z"/>
    <path class="st1" d="M43.9,34h-5.5c-.1,0-.2.1-.2.2,0,0,0,0,0,0v35.1c0,.1.1.3.3.3h5.5c5,0,9.1-4.1,9.1-9.1h0v-17.4c0-5-4.1-9.1-9.1-9.1h0ZM45.2,57.2c-2,0-3.6-1.6-3.6-3.6s1.6-3.6,3.6-3.6c2,0,3.6,1.6,3.6,3.6h0c0,2-1.6,3.6-3.6,3.6Z"/>
    <path class="st1" d="M34.3,34h-7.8c-5,0-9.1,4.1-9.1,9.1v17.4c0,5,4.1,9.1,9.1,9.1h7.8c.1,0,.3-.1.3-.3h0v-35.1c0-.1-.1-.3-.3-.3h0ZM26.3,41.3c1.8,0,3.3,1.5,3.3,3.3,0,1.8-1.5,3.3-3.3,3.3-1.8,0-3.3-1.5-3.3-3.3h0c0-1.8,1.5-3.3,3.3-3.3h0Z"/>
  </g>
</svg>