<?xml version="1.0" encoding="UTF-8"?>
<svg id="Capa_1" xmlns="http://www.w3.org/2000/svg" version="1.1" viewBox="0 0 103 103">
  <!-- Generator: Adobe Illustrator 29.0.0, SVG Export Plug-In . SVG Version: 2.1.0 Build 186)  -->
  <defs>
    <style>
      .st0 {
        fill: #232221;
        stroke-miterlimit: 10;
        stroke-width: 3px;
      }

      .st0, .st1 {
        stroke: #a5a4a4;
      }

      .st1 {
        fill: none;
        stroke-linecap: round;
        stroke-linejoin: round;
        stroke-width: 2px;
      }
    </style>
  </defs>
  <circle class="st0" cx="51.5" cy="51.5" r="50"/>
  <g>
    <rect class="st1" x="24.9" y="26.7" width="53.2" height="49.5" rx="4.9" ry="4.9"/>
    <path class="st1" d="M31.7,26.7v44.6s-.5,4.9,1.7,4.9"/>
    <path class="st1" d="M72.4,26.7v44.6s.5,4.9-1.7,4.9"/>
    <path class="st1" d="M72.3,64s-3.5,2.9-19.8,2.9h-1c-16.4,0-19.8-2.9-19.8-2.9"/>
    <path class="st1" d="M66.3,26.7l-1.6,9.1c-.1.6-.4,1.2-.9,1.5s-1.7.7-3.5.5c-3.6-.5-4.3-.8-8.5-.8h-.5c-4.2,0-4.9.3-8.5.8s-2.9,0-3.5-.5-.8-.9-.9-1.5l-1.6-9.1"/>
    <path class="st1" d="M65,65.9v-20.8s.1-3.7-13.3-3.7h-.2c-13.5,0-13.3,3.7-13.3,3.7v20.8"/>
    <line class="st1" x1="42.3" y1="31.9" x2="60.7" y2="31.9"/>
    <ellipse class="st1" cx="51.7" cy="53" rx="10.2" ry="2.5"/>
    <g>
      <circle class="st1" cx="38.7" cy="71.5" r="2.2"/>
      <circle class="st1" cx="64.3" cy="71.5" r="2.2"/>
    </g>
    <g>
      <line class="st1" x1="48.6" y1="60.3" x2="47.1" y2="63"/>
      <line class="st1" x1="52.3" y1="60.3" x2="50.7" y2="63"/>
      <line class="st1" x1="55.9" y1="60.3" x2="54.4" y2="63"/>
    </g>
  </g>
</svg>