<?xml version="1.0" encoding="UTF-8"?>
<svg id="Capa_1" xmlns="http://www.w3.org/2000/svg" version="1.1" viewBox="0 0 103 103">
  <!-- Generator: Adobe Illustrator 29.0.0, SVG Export Plug-In . SVG Version: 2.1.0 Build 186)  -->
  <defs>
    <style>
      .st0 {
        fill: #232221;
        stroke-miterlimit: 10;
        stroke-width: 3px;
      }

      .st0, .st1 {
        stroke: #a5a4a4;
      }

      .st2 {
        fill: #a5a4a4;
      }

      .st1 {
        fill: none;
        stroke-linecap: round;
        stroke-linejoin: round;
        stroke-width: 2px;
      }
    </style>
  </defs>
  <circle class="st0" cx="51.5" cy="51.5" r="50"/>
  <g>
    <polygon class="st1" points="40.2 77.6 79.3 77.6 79.3 67.9 59.7 64.4 41 64.4 40.2 77.6"/>
    <line class="st1" x1="59.7" y1="64.4" x2="59.7" y2="77.6"/>
    <polyline class="st1" points="78 67.7 78 29 59.7 19.8 57.9 64.4"/>
    <polyline class="st1" points="59.7 19.8 44.2 19.8 42.7 64.4"/>
    <line class="st1" x1="54.3" y1="24.5" x2="53.6" y2="59.5"/>
    <polyline class="st1" points="43.7 33.4 48.7 33.4 48.2 53.1 43.4 53.1"/>
    <line class="st1" x1="44" y1="25.2" x2="47.7" y2="25.2"/>
    <line class="st1" x1="44" y1="29.5" x2="47.7" y2="29.5"/>
    <line class="st1" x1="44" y1="58.8" x2="47.7" y2="58.8"/>
    <rect class="st1" x="22" y="34.3" width="12.5" height="37.2" rx=".6" ry=".6"/>
    <g>
      <line class="st1" x1="28.2" y1="39.7" x2="28.2" y2="44.8"/>
      <line class="st1" x1="25.7" y1="42.3" x2="30.8" y2="42.3"/>
    </g>
    <circle class="st2" cx="28.2" cy="49.5" r="1"/>
    <circle class="st2" cx="28.2" cy="62" r="1"/>
    <circle class="st2" cx="28.2" cy="66.2" r="1"/>
    <g>
      <circle class="st2" cx="25.6" cy="53.8" r="1"/>
      <circle class="st2" cx="28.2" cy="53.8" r="1"/>
      <circle class="st2" cx="30.9" cy="53.8" r="1"/>
    </g>
  </g>
</svg>