<?xml version="1.0" encoding="UTF-8"?>
<svg id="Capa_1" xmlns="http://www.w3.org/2000/svg" version="1.1" viewBox="0 0 103 103">
  <!-- Generator: Adobe Illustrator 29.0.0, SVG Export Plug-In . SVG Version: 2.1.0 Build 186)  -->
  <defs>
    <style>
      .st0 {
        fill: #232221;
        stroke-miterlimit: 10;
        stroke-width: 3px;
      }

      .st0, .st1 {
        stroke: #a5a4a4;
      }

      .st2 {
        fill: #a5a4a4;
      }

      .st1 {
        fill: none;
        stroke-linecap: round;
        stroke-linejoin: round;
        stroke-width: 2px;
      }
    </style>
  </defs>
  <circle class="st0" cx="51.5" cy="51.5" r="50"/>
  <g>
    <rect class="st1" x="14.6" y="31.3" width="73.8" height="40.4" rx="6.5" ry="6.5"/>
    <circle class="st1" cx="21.5" cy="40.4" r="3.5"/>
    <circle class="st1" cx="81.8" cy="40.4" r="3.5"/>
    <rect class="st1" x="31.2" y="39.8" width="40.9" height="22.9"/>
    <g>
      <line class="st1" x1="36.9" y1="35.5" x2="47.8" y2="35.5"/>
      <line class="st1" x1="55" y1="35.5" x2="65.9" y2="35.5"/>
      <circle class="st2" cx="51.4" cy="35.5" r="1"/>
    </g>
    <g>
      <g>
        <circle class="st2" cx="78.3" cy="47.6" r="1.7"/>
        <circle class="st2" cx="78.3" cy="52.7" r="1.7"/>
      </g>
      <g>
        <circle class="st2" cx="75.4" cy="50.2" r="1.7"/>
        <circle class="st2" cx="80.8" cy="50.2" r="1.7"/>
      </g>
    </g>
    <g>
      <rect class="st2" x="23.4" y="47" width="2.6" height="7.4"/>
      <rect class="st2" x="23.4" y="47" width="2.6" height="7.4" transform="translate(-26 75.5) rotate(-90)"/>
    </g>
    <circle class="st2" cx="51.5" cy="67.3" r="2.4"/>
    <line class="st1" x1="74.7" y1="67.3" x2="77.1" y2="67.3"/>
    <circle class="st2" cx="75.4" cy="58.5" r="1"/>
    <circle class="st2" cx="75.4" cy="61.6" r="1"/>
    <circle class="st2" cx="67.5" cy="66.7" r="1"/>
    <circle class="st2" cx="64.7" cy="66.7" r="1"/>
    <line class="st1" x1="26.2" y1="67.3" x2="28.6" y2="67.3"/>
  </g>
</svg>